<svg xmlns="http://www.w3.org/2000/svg" viewBox="0 0 448 448" width="448" height="448">
	<style>
		tspan { white-space:pre }
		.shp0 { fill: #ffffff } 
	</style>
	<g id="Layer">
		<g id="Layer">
			<path id="Layer" class="shp0" d="M420.36 192.23C418.53 191.93 416.68 191.8 414.83 191.82L99.31 191.82L106.19 188.62C112.91 185.44 119.03 181.1 124.27 175.82L212.75 87.34C224.4 76.22 226.36 58.32 217.38 44.94C206.94 30.68 186.92 27.58 172.66 38.03C171.51 38.87 170.41 39.79 169.38 40.78L9.38 200.78C-3.12 213.27 -3.13 233.53 9.36 246.03C9.37 246.04 9.38 246.05 9.38 246.06L169.38 406.06C181.9 418.54 202.16 418.51 214.64 406C215.62 405.01 216.54 403.96 217.38 402.86C226.36 389.48 224.4 371.58 212.75 360.46L124.43 271.82C119.73 267.12 114.33 263.18 108.43 260.14L98.83 255.82L413.07 255.82C429.41 256.43 443.75 245.01 446.83 228.94C449.65 211.49 437.81 195.06 420.36 192.23Z" />
		</g>
	</g>
	<g id="Layer">
	</g>
	<g id="Layer">
	</g>
	<g id="Layer">
	</g>
	<g id="Layer">
	</g>
	<g id="Layer">
	</g>
	<g id="Layer">
	</g>
	<g id="Layer">
	</g>
	<g id="Layer">
	</g>
	<g id="Layer">
	</g>
	<g id="Layer">
	</g>
	<g id="Layer">
	</g>
	<g id="Layer">
	</g>
	<g id="Layer">
	</g>
	<g id="Layer">
	</g>
	<g id="Layer">
	</g>
</svg>